{
    "asset" : {
        "generator" : "Khronos glTF Blender I/O v1.4.40",
        "version" : "2.0"
    },
    "scene" : 0,
    "scenes" : [
        {
            "name" : "Scene",
            "nodes" : [
                0,
                1,
                2,
                3,
                4,
                5,
                6
            ]
        }
    ],
    "nodes" : [
        {
            "name" : "Light",
            "rotation" : [
                0.16907575726509094,
                0.7558803558349609,
                -0.27217137813568115,
                0.570947527885437
            ],
            "translation" : [
                4.076245307922363,
                2.5111680030822754,
                -1.0054539442062378
            ]
        },
        {
            "name" : "Camera",
            "rotation" : [
                0.483536034822464,
                0.33687159419059753,
                -0.20870360732078552,
                0.7804827094078064
            ],
            "translation" : [
                7.358891487121582,
                4.958309173583984,
                6.925790786743164
            ]
        },
        {
            "mesh" : 0,
            "name" : "blackpawn",
            "scale" : [
                1,
                0.1488235741853714,
                1
            ],
            "translation" : [
                0,
                0.1622564047574997,
                0
            ]
        },
        {
            "mesh" : 1,
            "name" : "whitepawn",
            "scale" : [
                1,
                0.1488235741853714,
                1
            ],
            "translation" : [
                -3.109264850616455,
                0.1622564047574997,
                0
            ]
        },
        {
            "name" : "Light.001",
            "rotation" : [
                0.16907575726509094,
                0.7558803558349609,
                -0.27217137813568115,
                0.570947527885437
            ],
            "translation" : [
                -5.964510917663574,
                0.5440945625305176,
                -1.8857123851776123
            ]
        },
        {
            "mesh" : 2,
            "name" : "Plane",
            "scale" : [
                8.600140571594238,
                8.600140571594238,
                8.600140571594238
            ]
        },
        {
            "name" : "Light.002",
            "rotation" : [
                0.16907575726509094,
                0.7558803558349609,
                -0.27217137813568115,
                0.570947527885437
            ],
            "translation" : [
                -5.837944030761719,
                7.202811241149902,
                9.028404235839844
            ]
        }
    ],
    "materials" : [
        {
            "doubleSided" : true,
            "name" : "Black colour",
            "pbrMetallicRoughness" : {
                "baseColorFactor" : [
                    0.007708148565143347,
                    0.007919145748019218,
                    0.008075769990682602,
                    1
                ],
                "metallicFactor" : 0,
                "roughnessFactor" : 0.523809552192688
            }
        },
        {
            "doubleSided" : true,
            "name" : "White colour",
            "pbrMetallicRoughness" : {
                "baseColorFactor" : [
                    1,
                    0.9486953020095825,
                    0.6038262844085693,
                    1
                ],
                "metallicFactor" : 0,
                "roughnessFactor" : 0.511904776096344
            }
        },
        {
            "doubleSided" : true,
            "name" : "Base",
            "pbrMetallicRoughness" : {
                "baseColorFactor" : [
                    1,
                    0.06907622516155243,
                    0.23816846311092377,
                    1
                ],
                "metallicFactor" : 0.3956044018268585,
                "roughnessFactor" : 0.45604395866394043
            }
        }
    ],
    "meshes" : [
        {
            "name" : "Cylinder",
            "primitives" : [
                {
                    "attributes" : {
                        "POSITION" : 0,
                        "NORMAL" : 1,
                        "TEXCOORD_0" : 2
                    },
                    "indices" : 3,
                    "material" : 0
                }
            ]
        },
        {
            "name" : "Cylinder.001",
            "primitives" : [
                {
                    "attributes" : {
                        "POSITION" : 4,
                        "NORMAL" : 5,
                        "TEXCOORD_0" : 6
                    },
                    "indices" : 3,
                    "material" : 1
                }
            ]
        },
        {
            "name" : "Plane.002",
            "primitives" : [
                {
                    "attributes" : {
                        "POSITION" : 7,
                        "NORMAL" : 8,
                        "TEXCOORD_0" : 9
                    },
                    "indices" : 10,
                    "material" : 2
                }
            ]
        }
    ],
    "accessors" : [
        {
            "bufferView" : 0,
            "componentType" : 5126,
            "count" : 3377,
            "max" : [
                1,
                21.75558090209961,
                1
            ],
            "min" : [
                -1,
                -1,
                -1
            ],
            "type" : "VEC3"
        },
        {
            "bufferView" : 1,
            "componentType" : 5126,
            "count" : 3377,
            "type" : "VEC3"
        },
        {
            "bufferView" : 2,
            "componentType" : 5126,
            "count" : 3377,
            "type" : "VEC2"
        },
        {
            "bufferView" : 3,
            "componentType" : 5123,
            "count" : 18804,
            "type" : "SCALAR"
        },
        {
            "bufferView" : 4,
            "componentType" : 5126,
            "count" : 3377,
            "max" : [
                1,
                21.75558090209961,
                1
            ],
            "min" : [
                -1,
                -1,
                -1
            ],
            "type" : "VEC3"
        },
        {
            "bufferView" : 5,
            "componentType" : 5126,
            "count" : 3377,
            "type" : "VEC3"
        },
        {
            "bufferView" : 6,
            "componentType" : 5126,
            "count" : 3377,
            "type" : "VEC2"
        },
        {
            "bufferView" : 7,
            "componentType" : 5126,
            "count" : 4,
            "max" : [
                1,
                0,
                1
            ],
            "min" : [
                -1,
                0,
                -1
            ],
            "type" : "VEC3"
        },
        {
            "bufferView" : 8,
            "componentType" : 5126,
            "count" : 4,
            "type" : "VEC3"
        },
        {
            "bufferView" : 9,
            "componentType" : 5126,
            "count" : 4,
            "type" : "VEC2"
        },
        {
            "bufferView" : 10,
            "componentType" : 5123,
            "count" : 6,
            "type" : "SCALAR"
        }
    ],
    "bufferViews" : [
        {
            "buffer" : 0,
            "byteLength" : 40524,
            "byteOffset" : 0
        },
        {
            "buffer" : 0,
            "byteLength" : 40524,
            "byteOffset" : 40524
        },
        {
            "buffer" : 0,
            "byteLength" : 27016,
            "byteOffset" : 81048
        },
        {
            "buffer" : 0,
            "byteLength" : 37608,
            "byteOffset" : 108064
        },
        {
            "buffer" : 0,
            "byteLength" : 40524,
            "byteOffset" : 145672
        },
        {
            "buffer" : 0,
            "byteLength" : 40524,
            "byteOffset" : 186196
        },
        {
            "buffer" : 0,
            "byteLength" : 27016,
            "byteOffset" : 226720
        },
        {
            "buffer" : 0,
            "byteLength" : 48,
            "byteOffset" : 253736
        },
        {
            "buffer" : 0,
            "byteLength" : 48,
            "byteOffset" : 253784
        },
        {
            "buffer" : 0,
            "byteLength" : 32,
            "byteOffset" : 253832
        },
        {
            "buffer" : 0,
            "byteLength" : 12,
            "byteOffset" : 253864
        }
    ],
    "buffers" : [
        {
            "byteLength" : 253876,
            "uri" : "data:application/octet-stream;base64,"
        }
    ]
}
