{
    "asset" : {
        "generator" : "Khronos glTF Blender I/O v1.4.40",
        "version" : "2.0"
    },
    "scene" : 0,
    "scenes" : [
        {
            "name" : "Scene",
            "nodes" : [
                0,
                1,
                2,
                3,
                4,
                5,
                6,
                7,
                8,
                9
            ]
        }
    ],
    "nodes" : [
        {
            "name" : "Light",
            "rotation" : [
                0.16907575726509094,
                0.7558803558349609,
                -0.27217137813568115,
                0.570947527885437
            ],
            "translation" : [
                4.076245307922363,
                5.903861999511719,
                -1.0054539442062378
            ]
        },
        {
            "name" : "Camera",
            "rotation" : [
                0.483536034822464,
                0.33687159419059753,
                -0.20870360732078552,
                0.7804827094078064
            ],
            "translation" : [
                7.358891487121582,
                4.958309173583984,
                6.925790786743164
            ]
        },
        {
            "mesh" : 0,
            "name" : "Plane",
            "scale" : [
                10.337409019470215,
                10.337409019470215,
                10.337409019470215
            ]
        },
        {
            "mesh" : 1,
            "name" : "Cone",
            "scale" : [
                1.8776439428329468,
                1.465291142463684,
                1.222301721572876
            ],
            "translation" : [
                2.182424306869507,
                1.5965907573699951,
                3.810237407684326
            ]
        },
        {
            "mesh" : 2,
            "name" : "Sphere",
            "scale" : [
                1.1189888715744019,
                1,
                1.1336498260498047
            ],
            "translation" : [
                5,
                1,
                -2
            ]
        },
        {
            "mesh" : 3,
            "name" : "Cylinder",
            "scale" : [
                1.6810907125473022,
                0.52556973695755,
                2.0684735774993896
            ],
            "translation" : [
                -3.694626569747925,
                0.7229278683662415,
                3.7181661128997803
            ]
        },
        {
            "mesh" : 4,
            "name" : "Torus",
            "scale" : [
                1.830459713935852,
                11.212388038635254,
                1.1756161451339722
            ],
            "translation" : [
                -2.6149790287017822,
                2.9298837184906006,
                -4.722880840301514
            ]
        },
        {
            "mesh" : 5,
            "name" : "Cone.001",
            "translation" : [
                -5.317613124847412,
                1.1799999475479126,
                0
            ]
        },
        {
            "mesh" : 6,
            "name" : "Sphere.001",
            "translation" : [
                0.8044005036354065,
                1.0899999141693115,
                -3.7758936882019043
            ]
        },
        {
            "mesh" : 7,
            "name" : "Torus.001",
            "scale" : [
                0.7938595414161682,
                0.7836808562278748,
                0.7938595414161682
            ],
            "translation" : [
                1.2899999618530273,
                0.8036565184593201,
                0
            ]
        }
    ],
    "meshes" : [
        {
            "name" : "Plane",
            "primitives" : [
                {
                    "attributes" : {
                        "POSITION" : 0,
                        "NORMAL" : 1,
                        "TEXCOORD_0" : 2
                    },
                    "indices" : 3
                }
            ]
        },
        {
            "name" : "Cone.002",
            "primitives" : [
                {
                    "attributes" : {
                        "POSITION" : 4,
                        "NORMAL" : 5,
                        "TEXCOORD_0" : 6
                    },
                    "indices" : 7
                }
            ]
        },
        {
            "name" : "Sphere",
            "primitives" : [
                {
                    "attributes" : {
                        "POSITION" : 8,
                        "NORMAL" : 9,
                        "TEXCOORD_0" : 10
                    },
                    "indices" : 11
                }
            ]
        },
        {
            "name" : "Cylinder.001",
            "primitives" : [
                {
                    "attributes" : {
                        "POSITION" : 12,
                        "NORMAL" : 13,
                        "TEXCOORD_0" : 14
                    },
                    "indices" : 15
                }
            ]
        },
        {
            "name" : "Torus",
            "primitives" : [
                {
                    "attributes" : {
                        "POSITION" : 16,
                        "NORMAL" : 17,
                        "TEXCOORD_0" : 18
                    },
                    "indices" : 19
                }
            ]
        },
        {
            "name" : "Cone.004",
            "primitives" : [
                {
                    "attributes" : {
                        "POSITION" : 20,
                        "NORMAL" : 21,
                        "TEXCOORD_0" : 22
                    },
                    "indices" : 23
                }
            ]
        },
        {
            "name" : "Sphere.001",
            "primitives" : [
                {
                    "attributes" : {
                        "POSITION" : 24,
                        "NORMAL" : 25,
                        "TEXCOORD_0" : 26
                    },
                    "indices" : 27
                }
            ]
        },
        {
            "name" : "Torus.001",
            "primitives" : [
                {
                    "attributes" : {
                        "POSITION" : 28,
                        "NORMAL" : 29,
                        "TEXCOORD_0" : 30
                    },
                    "indices" : 31
                }
            ]
        }
    ],
    "accessors" : [
        {
            "bufferView" : 0,
            "componentType" : 5126,
            "count" : 4,
            "max" : [
                1,
                0,
                1
            ],
            "min" : [
                -1,
                0,
                -1
            ],
            "type" : "VEC3"
        },
        {
            "bufferView" : 1,
            "componentType" : 5126,
            "count" : 4,
            "type" : "VEC3"
        },
        {
            "bufferView" : 2,
            "componentType" : 5126,
            "count" : 4,
            "type" : "VEC2"
        },
        {
            "bufferView" : 3,
            "componentType" : 5123,
            "count" : 6,
            "type" : "SCALAR"
        },
        {
            "bufferView" : 4,
            "componentType" : 5126,
            "count" : 128,
            "max" : [
                1,
                1,
                1
            ],
            "min" : [
                -1,
                -1,
                -1
            ],
            "type" : "VEC3"
        },
        {
            "bufferView" : 5,
            "componentType" : 5126,
            "count" : 128,
            "type" : "VEC3"
        },
        {
            "bufferView" : 6,
            "componentType" : 5126,
            "count" : 128,
            "type" : "VEC2"
        },
        {
            "bufferView" : 7,
            "componentType" : 5123,
            "count" : 186,
            "type" : "SCALAR"
        },
        {
            "bufferView" : 8,
            "componentType" : 5126,
            "count" : 1984,
            "max" : [
                1.000000238418579,
                1,
                1.0000003576278687
            ],
            "min" : [
                -0.9999998211860657,
                -1,
                -1
            ],
            "type" : "VEC3"
        },
        {
            "bufferView" : 9,
            "componentType" : 5126,
            "count" : 1984,
            "type" : "VEC3"
        },
        {
            "bufferView" : 10,
            "componentType" : 5126,
            "count" : 1984,
            "type" : "VEC2"
        },
        {
            "bufferView" : 11,
            "componentType" : 5123,
            "count" : 2880,
            "type" : "SCALAR"
        },
        {
            "bufferView" : 12,
            "componentType" : 5126,
            "count" : 192,
            "max" : [
                1,
                1,
                1
            ],
            "min" : [
                -1,
                -1,
                -1
            ],
            "type" : "VEC3"
        },
        {
            "bufferView" : 13,
            "componentType" : 5126,
            "count" : 192,
            "type" : "VEC3"
        },
        {
            "bufferView" : 14,
            "componentType" : 5126,
            "count" : 192,
            "type" : "VEC2"
        },
        {
            "bufferView" : 15,
            "componentType" : 5123,
            "count" : 372,
            "type" : "SCALAR"
        },
        {
            "bufferView" : 16,
            "componentType" : 5126,
            "count" : 2304,
            "max" : [
                1.25,
                0.25,
                1.25
            ],
            "min" : [
                -1.25,
                -0.25,
                -1.25
            ],
            "type" : "VEC3"
        },
        {
            "bufferView" : 17,
            "componentType" : 5126,
            "count" : 2304,
            "type" : "VEC3"
        },
        {
            "bufferView" : 18,
            "componentType" : 5126,
            "count" : 2304,
            "type" : "VEC2"
        },
        {
            "bufferView" : 19,
            "componentType" : 5123,
            "count" : 3456,
            "type" : "SCALAR"
        },
        {
            "bufferView" : 20,
            "componentType" : 5126,
            "count" : 12,
            "max" : [
                1.065211296081543,
                1,
                0.6150000691413879
            ],
            "min" : [
                -1.065211296081543,
                -1,
                -1.2300000190734863
            ],
            "type" : "VEC3"
        },
        {
            "bufferView" : 21,
            "componentType" : 5126,
            "count" : 12,
            "type" : "VEC3"
        },
        {
            "bufferView" : 22,
            "componentType" : 5126,
            "count" : 12,
            "type" : "VEC2"
        },
        {
            "bufferView" : 23,
            "componentType" : 5123,
            "count" : 12,
            "type" : "SCALAR"
        },
        {
            "bufferView" : 24,
            "componentType" : 5126,
            "count" : 40,
            "max" : [
                0.8660255074501038,
                0.9999997615814209,
                0.8660255670547485
            ],
            "min" : [
                -0.8660255074501038,
                -1,
                -0.866025447845459
            ],
            "type" : "VEC3"
        },
        {
            "bufferView" : 25,
            "componentType" : 5126,
            "count" : 40,
            "type" : "VEC3"
        },
        {
            "bufferView" : 26,
            "componentType" : 5126,
            "count" : 40,
            "type" : "VEC2"
        },
        {
            "bufferView" : 27,
            "componentType" : 5123,
            "count" : 48,
            "type" : "SCALAR"
        },
        {
            "bufferView" : 28,
            "componentType" : 5126,
            "count" : 120,
            "max" : [
                2.8499999046325684,
                0.846440315246582,
                2.468172550201416
            ],
            "min" : [
                -2.8499999046325684,
                -0.846440315246582,
                -2.468172550201416
            ],
            "type" : "VEC3"
        },
        {
            "bufferView" : 29,
            "componentType" : 5126,
            "count" : 120,
            "type" : "VEC3"
        },
        {
            "bufferView" : 30,
            "componentType" : 5126,
            "count" : 120,
            "type" : "VEC2"
        },
        {
            "bufferView" : 31,
            "componentType" : 5123,
            "count" : 180,
            "type" : "SCALAR"
        }
    ],
    "bufferViews" : [
        {
            "buffer" : 0,
            "byteLength" : 48,
            "byteOffset" : 0
        },
        {
            "buffer" : 0,
            "byteLength" : 48,
            "byteOffset" : 48
        },
        {
            "buffer" : 0,
            "byteLength" : 32,
            "byteOffset" : 96
        },
        {
            "buffer" : 0,
            "byteLength" : 12,
            "byteOffset" : 128
        },
        {
            "buffer" : 0,
            "byteLength" : 1536,
            "byteOffset" : 140
        },
        {
            "buffer" : 0,
            "byteLength" : 1536,
            "byteOffset" : 1676
        },
        {
            "buffer" : 0,
            "byteLength" : 1024,
            "byteOffset" : 3212
        },
        {
            "buffer" : 0,
            "byteLength" : 372,
            "byteOffset" : 4236
        },
        {
            "buffer" : 0,
            "byteLength" : 23808,
            "byteOffset" : 4608
        },
        {
            "buffer" : 0,
            "byteLength" : 23808,
            "byteOffset" : 28416
        },
        {
            "buffer" : 0,
            "byteLength" : 15872,
            "byteOffset" : 52224
        },
        {
            "buffer" : 0,
            "byteLength" : 5760,
            "byteOffset" : 68096
        },
        {
            "buffer" : 0,
            "byteLength" : 2304,
            "byteOffset" : 73856
        },
        {
            "buffer" : 0,
            "byteLength" : 2304,
            "byteOffset" : 76160
        },
        {
            "buffer" : 0,
            "byteLength" : 1536,
            "byteOffset" : 78464
        },
        {
            "buffer" : 0,
            "byteLength" : 744,
            "byteOffset" : 80000
        },
        {
            "buffer" : 0,
            "byteLength" : 27648,
            "byteOffset" : 80744
        },
        {
            "buffer" : 0,
            "byteLength" : 27648,
            "byteOffset" : 108392
        },
        {
            "buffer" : 0,
            "byteLength" : 18432,
            "byteOffset" : 136040
        },
        {
            "buffer" : 0,
            "byteLength" : 6912,
            "byteOffset" : 154472
        },
        {
            "buffer" : 0,
            "byteLength" : 144,
            "byteOffset" : 161384
        },
        {
            "buffer" : 0,
            "byteLength" : 144,
            "byteOffset" : 161528
        },
        {
            "buffer" : 0,
            "byteLength" : 96,
            "byteOffset" : 161672
        },
        {
            "buffer" : 0,
            "byteLength" : 24,
            "byteOffset" : 161768
        },
        {
            "buffer" : 0,
            "byteLength" : 480,
            "byteOffset" : 161792
        },
        {
            "buffer" : 0,
            "byteLength" : 480,
            "byteOffset" : 162272
        },
        {
            "buffer" : 0,
            "byteLength" : 320,
            "byteOffset" : 162752
        },
        {
            "buffer" : 0,
            "byteLength" : 96,
            "byteOffset" : 163072
        },
        {
            "buffer" : 0,
            "byteLength" : 1440,
            "byteOffset" : 163168
        },
        {
            "buffer" : 0,
            "byteLength" : 1440,
            "byteOffset" : 164608
        },
        {
            "buffer" : 0,
            "byteLength" : 960,
            "byteOffset" : 166048
        },
        {
            "buffer" : 0,
            "byteLength" : 360,
            "byteOffset" : 167008
        }
    ],
    "buffers" : [
        {
            "byteLength" : 167368,
            "uri" : "data:application/octet-stream;base64,"
        }
    ]
}
